#!OML:ASF F:\VICON\USERDATA\INSTALL\rory3\rory3.ASF
:FULLY-SPECIFIED
:DEGREES
2978
root 0.0660185 16.6919 -0.444162 -9.1289 5.55851 3.04013
lowerback 2.54336 -1.7645 -1.32371
upperback 6.36082 -2.48709 3.3244
thorax 5.38045 -1.40446 4.14643
lowerneck -13.7572 -11.1193 -16.9256
upperneck 22.1851 -15.4886 14.7565
head 12.1433 -6.93929 5.8075
rclavicle -5.1684e-015 6.36111e-015
rhumerus 44.6869 -18.362 -45.3014
rradius 92.735
rwrist 15.1301
rhand 11.9327 15.6146
rfingers 7.12502
rthumb 36.957 -10.461
lclavicle -5.1684e-015 6.36111e-015
lhumerus 41.5196 19.0979 31.563
lradius 85.7119
lwrist 14.6823
lhand 0.71701 25.7322
lfingers 7.12502
lthumb 26.277 53.9325
rfemur -1.5548 1.19599 14.932
rtibia 36.0031
rfoot -26.7178 -9.81185
rtoes -23.7593
lfemur -2.25622 -7.17247 -22.0597
ltibia 33.9634
lfoot -20.9776 -3.4708
ltoes -13.6532
2979
root 0.0611307 16.6861 -0.445039 -9.18273 5.486 2.9971
lowerback 2.59998 -1.77086 -1.30059
upperback 6.39583 -2.49521 3.29676
thorax 5.38344 -1.4071 4.10555
lowerneck -13.5733 -11.0731 -17.0518
upperneck 22.2883 -15.3939 14.6209
head 12.1259 -6.92986 5.80437
rclavicle -1.5704e-014 1.43125e-014
rhumerus 45.4884 -19.0029 -47.2679
rradius 93.4706
rwrist 14.9753
rhand 11.6415 15.2299
rfingers 7.12502
rthumb 36.6815 -10.9162
lclavicle -1.5704e-014 1.43125e-014
lhumerus 41.7862 19.4878 31.6332
lradius 85.372
lwrist 14.1436
lhand 0.584249 25.7689
lfingers 7.12502
lthumb 26.1499 53.9881
rfemur -1.62543 1.0044 14.9275
rtibia 36.2063
rfoot -26.8397 -9.57634
rtoes -23.9462
lfemur -2.27897 -7.09642 -21.9831
ltibia 34.0906
lfoot -20.9527 -3.64246
ltoes -12.8644
2980
root 0.0559314 16.6812 -0.444003 -9.22629 5.43975 3.04997
lowerback 2.64305 -1.74424 -1.31448
upperback 6.37467 -2.45583 3.22786
thorax 5.32988 -1.38504 4.04345
lowerneck -13.3574 -11.0374 -17.2088
upperneck 22.5296 -15.3381 14.5024
head 12.1681 -6.93922 5.81078
rclavicle -4.54223e-014 9.54166e-015
rhumerus 46.1435 -19.5837 -49.1152
rradius 93.8937
rwrist 14.8035
rhand 11.7467 15.1601
rfingers 7.12502
rthumb 36.7811 -10.9607
lclavicle -4.54223e-014 9.54166e-015
lhumerus 42.108 19.5288 31.4522
lradius 84.8145
lwrist 13.5567
lhand 0.778469 25.9226
lfingers 7.12502
lthumb 26.3358 54.1141
rfemur -1.65713 0.791258 14.8063
rtibia 36.3598
rfoot -26.9922 -9.26689
rtoes -23.7346
lfemur -2.26412 -7.01542 -22.0149
ltibia 34.1686
lfoot -20.9391 -3.71355
ltoes -12.4887
2981
root 0.0506252 16.6768 -0.441373 -9.2288 5.38326 3.13727
lowerback 2.61337 -1.71473 -1.40664
upperback 6.29924 -2.4112 3.1505
thorax 5.26309 -1.36315 4.01503
lowerneck -12.9261 -10.9675 -17.2774
upperneck 22.677 -15.2555 14.3116
head 12.1096 -6.94792 5.78554
rclavicle 9.93923e-015 -1.74931e-014
rhumerus 46.6387 -20.1521 -50.8005
rradius 94.1847
rwrist 14.7203
rhand 11.8255 15.3183
rfingers 7.12502
rthumb 36.8556 -10.7833
lclavicle 9.93923e-015 -1.74931e-014
lhumerus 42.4463 19.0222 31.1185
lradius 83.9397
lwrist 12.7057
lhand 0.863304 25.9967
lfingers 7.12502
lthumb 26.417 54.1761
rfemur -1.70672 0.593639 14.6466
rtibia 36.4669
rfoot -27.0357 -9.01383
rtoes -23.248
lfemur -2.25558 -6.98045 -22.0882
ltibia 34.2053
lfoot -21.0721 -3.54384
ltoes -13.636
2982
root 0.047635 16.6771 -0.436744 -9.25137 5.28044 3.20369
lowerback 2.55576 -1.68273 -1.4831
upperback 6.245 -2.36481 3.09255
thorax 5.23489 -1.34096 3.99723
lowerneck -12.5031 -10.8984 -17.3483
upperneck 22.8439 -15.1668 14.0907
head 12.0566 -6.95634 5.75039
rclavicle 3.27995e-015 3.02153e-014
rhumerus 47.068 -20.6711 -52.201
rradius 94.1819
rwrist 14.7278
rhand 11.4778 15.5383
rfingers 7.12502
rthumb 36.5266 -10.647
lclavicle 3.27995e-015 3.02153e-014
lhumerus 42.6889 18.2132 30.4882
lradius 82.8812
lwrist 11.6192
lhand 1.03036 25.9405
lfingers 7.12502
lthumb 26.5769 54.0957
rfemur -1.72999 0.475412 14.5257
rtibia 36.5254
rfoot -27.0866 -8.81073
rtoes -22.9279
lfemur -2.19209 -6.92838 -22.1549
ltibia 34.2007
lfoot -21.1946 -3.23805
ltoes -15.1221
2983
root 0.0449767 16.6762 -0.431084 -9.27857 5.10339 3.17803
lowerback 2.46045 -1.6171 -1.50492
upperback 6.29058 -2.27867 3.10566
thorax 5.33187 -1.30133 4.02253
lowerneck -12.5843 -10.9045 -17.3703
upperneck 23.2402 -15.1223 13.7894
head 12.1913 -6.96286 5.65275
rclavicle -5.92378e-014 1.90833e-014
rhumerus 47.7128 -20.9212 -53.3148
rradius 93.7624
rwrist 14.8446
rhand 10.7095 15.1458
rfingers 7.12502
rthumb 35.7989 -11.2198
lclavicle -5.92378e-014 1.90833e-014
lhumerus 42.7336 17.5202 29.3238
lradius 81.8242
lwrist 10.8411
lhand 1.07883 25.5603
lfingers 7.12502
lthumb 26.6233 53.7085
rfemur -1.69331 0.453859 14.5329
rtibia 36.508
rfoot -27.0767 -8.5805
rtoes -22.7679
lfemur -2.11789 -6.91414 -22.1335
ltibia 34.1874
lfoot -21.1751 -3.13848
ltoes -14.4426
